<svg width="1440" height="128" viewBox="0 0 1440 128" fill="none" xmlns="http://www.w3.org/2000/svg">
<path d="M44.1706 125.65L0.200317 2.30194H24.4743L46.3181 66.3638C48.381 72.7787 50.5852 80.1541 52.9587 88.5186C55.3327 96.883 57.9043 106.321 60.6452 116.862H56.0107C58.78 106.18 61.2952 96.6853 63.5841 88.4055C65.873 80.1257 68.0205 72.7787 69.9987 66.3638L91.1924 2.30194H115.382L72.1463 125.65H44.1706Z" fill="#111111"/>
<path d="M110.804 125.65L153.87 2.30194H181.931L225.986 125.65H201.711L179.783 61.5599C177.635 54.9476 175.403 47.4589 173.086 39.0945C170.768 30.73 168.197 21.2351 165.371 10.5818H170.005C167.264 21.3481 164.75 30.9278 162.517 39.349C160.284 47.7702 158.165 55.1736 156.187 61.5599L134.993 125.65H110.804ZM135.897 95.1029V77.2999H200.892V95.1029H135.897Z" fill="#111111"/>
<path d="M242.432 125.65V2.30194H288.55C297.988 2.30194 305.957 3.94097 312.4 7.27527C318.871 10.5816 323.732 15.188 327.066 21.1222C330.372 27.0565 332.011 33.9517 332.011 41.7791C332.011 49.6349 330.344 56.4453 327.01 62.2382C323.675 68.0314 318.758 72.4961 312.231 75.6327C305.731 78.7977 297.734 80.3518 288.239 80.3518H255.29V62.0687H285.328C290.895 62.0687 295.445 61.2774 298.977 59.7233C302.51 58.1408 305.138 55.8233 306.861 52.7997C308.557 49.7477 309.433 46.1025 309.433 41.7791C309.433 37.3707 308.557 33.6123 306.861 30.4757C305.138 27.3674 302.51 24.9936 298.949 23.3264C295.388 21.6593 290.782 20.8396 285.159 20.8396H264.558V125.65H242.432ZM311.835 125.65L281.853 69.6986H306.014L336.589 125.65H311.835Z" fill="#111111"/>
<path d="M353.036 125.65V2.30194H399.154C408.592 2.30194 416.561 3.94097 423.004 7.27527C429.475 10.5816 434.335 15.188 437.67 21.1222C440.976 27.0565 442.615 33.9517 442.615 41.7791C442.615 49.6349 440.948 56.4453 437.613 62.2382C434.279 68.0314 429.362 72.4961 422.834 75.6327C416.335 78.7977 408.338 80.3518 398.843 80.3518H365.893V62.0687H395.932C401.499 62.0687 406.049 61.2774 409.581 59.7233C413.113 58.1408 415.741 55.8233 417.465 52.7997C419.161 49.7477 420.037 46.1025 420.037 41.7791C420.037 37.3707 419.161 33.6123 417.465 30.4757C415.741 27.3674 413.113 24.9936 409.553 23.3264C405.992 21.6593 401.386 20.8396 395.763 20.8396H375.162V125.65H353.036ZM422.439 125.65L392.456 69.6986H416.617L447.193 125.65H422.439Z" fill="#111111"/>
<path d="M485.681 2.30194L485.766 125.65H463.64V2.30194H485.681Z" fill="#111111"/>
<path d="M553.897 127.543C544.346 127.543 536.038 126.074 529.001 123.078C521.965 120.111 516.454 115.759 512.498 110.079C508.514 104.4 506.366 97.5047 506.027 89.3945H527.814C528.21 93.6896 529.538 97.2786 531.855 100.161C534.172 103.015 537.253 105.163 541.068 106.575C544.854 107.989 549.093 108.667 553.727 108.667C558.588 108.667 562.883 107.932 566.585 106.434C570.315 104.965 573.226 102.874 575.317 100.189C577.436 97.5046 578.482 94.4245 578.482 90.8922C578.482 87.6709 577.549 85.0145 575.712 82.9233C573.847 80.8321 571.248 79.0518 567.913 77.5823C564.579 76.1412 560.679 74.8414 556.214 73.7393L542.226 70.0942C531.884 67.4379 523.858 63.4529 518.093 58.0841C512.301 52.7433 509.418 45.707 509.418 36.9752C509.418 29.6844 511.396 23.3262 515.296 17.8723C519.224 12.3901 524.593 8.15154 531.375 5.15626C538.157 2.13264 545.872 0.634705 554.462 0.634705C563.251 0.634705 570.937 2.16061 577.578 5.18461C584.19 8.2362 589.361 12.4184 593.091 17.7876C596.821 23.1284 598.771 29.2321 598.913 36.0707H577.493C576.928 30.7866 574.582 26.6887 570.4 23.7781C566.246 20.8675 560.82 19.4263 554.123 19.4263C549.489 19.4263 545.504 20.133 542.169 21.5461C538.835 22.9589 536.264 24.8803 534.483 27.3105C532.675 29.7124 531.77 32.51 531.77 35.647C531.77 39.0943 532.844 41.8921 534.964 44.0963C537.083 46.3005 539.768 48.0805 542.989 49.4086C546.239 50.7367 549.489 51.8106 552.823 52.6304L564.324 55.5973C568.902 56.7278 573.339 58.1689 577.662 60.0058C581.958 61.8143 585.829 64.1315 589.276 66.9007C592.724 69.6984 595.465 73.0892 597.528 77.0452C599.563 81.03 600.58 85.6925 600.58 91.0333C600.58 98.2677 598.743 104.626 595.041 110.136C591.339 115.618 585.998 119.885 579.047 122.966C572.095 126.018 563.703 127.543 553.897 127.543Z" fill="#111111"/>
<path d="M663.568 125.65V2.30194H696.856L720.282 65.9684C721.13 68.3419 722.035 71.3939 723.052 75.0959C724.097 78.826 725.143 82.8387 726.217 87.1621C727.291 91.4575 728.308 95.6679 729.269 99.7653C730.23 103.891 731.049 107.508 731.727 110.673H727.234C727.912 107.565 728.732 104.004 729.693 99.9351C730.653 95.894 731.671 91.6837 732.745 87.3599C733.818 83.0365 734.864 78.9954 735.91 75.2371C736.927 71.4787 737.803 68.3986 738.594 65.9684L761.766 2.30194H795.139V125.65H773.097V63.3968C773.097 60.7406 773.126 57.5472 773.182 53.7889C773.239 50.0305 773.323 46.0178 773.437 41.6944C773.55 37.3989 773.663 33.0472 773.776 28.6671C773.889 24.287 773.945 20.105 773.945 16.1202H775.5C774.398 20.4724 773.21 24.9371 771.911 29.4865C770.611 34.0363 769.339 38.4728 768.068 42.7399C766.796 47.007 765.581 50.9351 764.451 54.5238C763.32 58.1125 762.359 61.0796 761.512 63.3968L738.763 125.65H719.972L696.856 63.3968C696.037 61.0796 695.048 58.1689 693.917 54.6649C692.787 51.1609 691.572 47.2896 690.272 43.0225C688.972 38.7838 687.672 34.3471 686.401 29.741C685.101 25.1349 683.801 20.5854 682.529 16.1202H684.366C684.423 19.8223 684.507 23.8349 684.62 28.1583C684.733 32.5101 684.818 36.8339 684.903 41.2139C684.988 45.5657 685.073 49.6632 685.157 53.5063C685.242 57.3497 685.27 60.6276 685.27 63.3968V125.65H663.568Z" fill="#111111"/>
<path d="M811.671 125.65L854.736 2.30194H882.797L926.852 125.65H902.578L880.65 61.5599C878.502 54.9476 876.27 47.4589 873.952 39.0945C871.635 30.73 869.063 21.2351 866.237 10.5818H870.872C868.131 21.3481 865.616 30.9278 863.384 39.349C861.151 47.7702 859.032 55.1736 857.054 61.5599L835.86 125.65H811.671ZM836.764 95.1029V77.2999H901.759V95.1029H836.764Z" fill="#111111"/>
<path d="M943.299 125.65V2.30194H968.307L1010.95 70.2635C1012.73 73.0894 1014.59 76.2543 1016.57 79.815C1018.58 83.3753 1020.64 87.3599 1022.79 91.74C1024.94 96.1485 1027.06 101.009 1029.18 106.35H1026.69C1026.29 101.715 1025.95 96.9677 1025.64 92.0793C1025.33 87.1905 1025.11 82.5561 1024.99 78.176C1024.85 73.7959 1024.77 70.0659 1024.77 67.0423V2.30194H1047.21V125.65H1022.14L983.624 64.4707C981.193 60.5427 978.904 56.6994 976.757 52.8847C974.609 49.0697 972.292 44.7743 969.805 39.9705C967.318 35.1668 964.323 29.3735 960.791 22.5915H963.927C964.266 28.5824 964.549 34.2908 964.831 39.688C965.114 45.0572 965.34 49.8607 965.538 54.1278C965.736 58.3666 965.82 61.7861 965.82 64.386V125.65H943.299Z" fill="#111111"/>
<path d="M1115.36 127.543C1105.81 127.543 1097.5 126.074 1090.47 123.078C1083.43 120.111 1077.92 115.759 1073.97 110.079C1069.98 104.4 1067.83 97.5047 1067.49 89.3945H1089.28C1089.68 93.6896 1091.01 97.2786 1093.32 100.161C1095.64 103.015 1098.72 105.163 1102.54 106.575C1106.32 107.989 1110.56 108.667 1115.19 108.667C1120.06 108.667 1124.35 107.932 1128.05 106.434C1131.78 104.965 1134.69 102.874 1136.78 100.189C1138.9 97.5046 1139.95 94.4245 1139.95 90.8922C1139.95 87.6709 1139.02 85.0145 1137.18 82.9233C1135.31 80.8321 1132.71 79.0518 1129.38 77.5823C1126.05 76.1412 1122.15 74.8414 1117.68 73.7393L1103.69 70.0942C1093.35 67.4379 1085.33 63.4529 1079.56 58.0841C1073.77 52.7433 1070.89 45.707 1070.89 36.9752C1070.89 29.6844 1072.86 23.3262 1076.76 17.8723C1080.69 12.3901 1086.06 8.15154 1092.84 5.15626C1099.62 2.13264 1107.34 0.634705 1115.93 0.634705C1124.72 0.634705 1132.4 2.16061 1139.04 5.18461C1145.66 8.2362 1150.83 12.4184 1154.56 17.7876C1158.29 23.1284 1160.24 29.2321 1160.38 36.0707H1138.96C1138.39 30.7866 1136.05 26.6887 1131.87 23.7781C1127.71 20.8675 1122.29 19.4263 1115.59 19.4263C1110.96 19.4263 1106.97 20.133 1103.64 21.5461C1100.3 22.9589 1097.73 24.8803 1095.95 27.3105C1094.14 29.7124 1093.24 32.51 1093.24 35.647C1093.24 39.0943 1094.31 41.8921 1096.43 44.0963C1098.55 46.3005 1101.23 48.0805 1104.46 49.4086C1107.71 50.7367 1110.96 51.8106 1114.29 52.6304L1125.79 55.5973C1130.37 56.7278 1134.81 58.1689 1139.13 60.0058C1143.43 61.8143 1147.3 64.1315 1150.74 66.9007C1154.19 69.6984 1156.93 73.0892 1159 77.0452C1161.03 81.03 1162.05 85.6925 1162.05 91.0333C1162.05 98.2677 1160.21 104.626 1156.51 110.136C1152.81 115.618 1147.47 119.885 1140.51 122.966C1133.56 126.018 1125.17 127.543 1115.36 127.543Z" fill="#111111"/>
<path d="M1232.33 127.459C1222.29 127.459 1213.51 125.593 1205.99 121.807C1198.5 118.02 1192.68 112.764 1188.53 106.067C1184.4 99.3702 1182.31 91.6268 1182.31 82.8387V2.30194H1204.43V81.0304C1204.43 86.1732 1205.57 90.7513 1207.85 94.7637C1210.14 98.8047 1213.39 101.97 1217.55 104.259C1221.7 106.547 1226.65 107.678 1232.33 107.678C1238.01 107.678 1242.92 106.547 1247.11 104.259C1251.26 101.97 1254.51 98.8047 1256.8 94.7637C1259.09 90.7513 1260.22 86.1732 1260.22 81.0304V2.30194H1282.34V82.8387C1282.34 91.6268 1280.25 99.3702 1276.07 106.067C1271.92 112.764 1266.09 118.02 1258.61 121.807C1251.15 125.593 1242.36 127.459 1232.33 127.459Z" fill="#111111"/>
<path d="M1307.07 125.65V2.30194H1353.19C1362.63 2.30194 1370.59 3.94097 1377.04 7.27527C1383.51 10.5816 1388.37 15.188 1391.7 21.1222C1395.01 27.0565 1396.65 33.9517 1396.65 41.7791C1396.65 49.6349 1394.98 56.4453 1391.65 62.2382C1388.31 68.0314 1383.4 72.4961 1376.87 75.6327C1370.37 78.7977 1362.37 80.3518 1352.88 80.3518H1319.93V62.0687H1349.97C1355.53 62.0687 1360.08 61.2774 1363.61 59.7233C1367.15 58.1408 1369.77 55.8233 1371.5 52.7997C1373.19 49.7477 1374.07 46.1025 1374.07 41.7791C1374.07 37.3707 1373.19 33.6123 1371.5 30.4757C1369.77 27.3674 1367.15 24.9936 1363.59 23.3264C1360.03 21.6593 1355.42 20.8396 1349.8 20.8396H1329.2V125.65H1307.07ZM1376.47 125.65L1346.49 69.6986H1370.65L1401.23 125.65H1376.47Z" fill="#111111"/>
<path d="M1439.71 2.30194L1439.8 125.65H1417.67V2.30194H1439.71Z" fill="#111111"/>
</svg>
