<svg width="32769" height="5114" viewBox="0 0 32769 5114" fill="none" xmlns="http://www.w3.org/2000/svg">
<path fill-rule="evenodd" clip-rule="evenodd" d="M4863.49 2806.02C4978.8 2738.48 5066.76 2679.06 5126.38 2628.06C5177.58 2584.4 5206.57 2549.28 5213.03 2522.92V2442.96C5160.95 2407.41 5109.09 2380.18 5057.9 2361.81C5001.56 2341.6 4944.89 2331.34 4888.22 2331.34C4807.15 2331.34 4723.79 2342.36 4638.68 2364.18C4552.48 2386.23 4463.42 2419.51 4372.07 2464.03C4283.24 2507.14 4216.83 2552.52 4173.84 2599.85C4134.78 2642.53 4115.09 2687.16 4115.09 2732.97C4115.09 2811.1 4142.11 2875.93 4195.94 2927.15C4223.4 2953.29 4253.16 2973.07 4284.89 2986.04C4315.73 2998.68 4349.76 3005.16 4386.29 3005.16C4429.18 3005.16 4489.56 2989.07 4567.03 2957.19C4648.63 2923.58 4747.53 2872.9 4863.49 2806.02ZM8310.02 1060.74C8329.14 1123.65 8357.09 1186.35 8393.58 1248.31H10092.9C10007.8 1119.39 9920.32 1004.81 9830.45 904.597C9725.31 787.356 9616.8 689.678 9505.65 611.987C9394.93 534.721 9281.59 476.703 9165.3 438.231C9049.88 400.091 8930.53 380.86 8807.78 380.86C8627.06 380.86 8492.93 419.757 8406.29 497.226C8364.39 535.375 8332.55 583.352 8311.22 640.613C8289.44 699.293 8278.4 768.66 8278.4 848.517C8278.4 920.261 8288.9 991.148 8310.02 1060.74ZM12227.2 1798.09C12240.1 1873.4 12246.8 1950.88 12246.8 2030.19C12246.8 2088 12241.7 2152.62 12231.8 2223.5C12223.6 2281.85 12211.8 2344.74 12196.6 2411.73C12283.6 2439.93 12363.5 2461.76 12435.7 2476.78C12516.9 2493.63 12589 2502.28 12651.1 2502.28C12712.5 2502.28 12766.9 2494.72 12814.1 2479.8C12860 2465.54 12900.2 2443.39 12933.9 2414.65C12968.4 2385.26 12994 2354.57 13010.5 2322.48C13026.1 2291.89 13034.1 2258.83 13034.1 2224.25V1641.63H12189.6C12205.4 1692.52 12218 1744.71 12227.2 1798.09ZM20145.8 1641.85V2537.17H20940.2V1641.85H20145.8ZM23010.6 2030.64C23010.6 2088.59 23005.5 2153.14 22995.5 2224.06C22987.3 2282.66 22975.6 2345.48 22960.4 2412.4C23047.5 2440.62 23127.3 2462.46 23199.6 2477.48C23280.8 2494.35 23353 2503 23415.2 2503C23476.2 2503 23530.5 2495.54 23577.7 2480.62C23624 2466.24 23664.2 2444.29 23698 2415.32C23732.4 2386.12 23758 2355.32 23774.5 2323.1C23790.5 2292.61 23798.4 2259.63 23798.4 2224.81V1641.85H22953.4C22969.2 1692.78 22981.8 1745 22991.1 1798.41C23004 1873.76 23010.6 1951.28 23010.6 2030.64ZM26188.2 843.844C26188.2 912.829 26195.9 983.427 26211.3 1054.89C26224.8 1117.96 26244.4 1182.76 26269.7 1248.31H27543.7C27481.2 1117.26 27416.7 1000.56 27350.7 898.88C27274.5 781.571 27195.8 683.732 27115.2 605.778C27035.5 529.556 26953.4 472.142 26869.6 434.197C26787.3 396.898 26702 378.082 26614.2 378.082C26541.1 378.082 26477.5 387.918 26424.3 407.167C26372.3 425.872 26328.9 454.091 26294.5 491.28C26259.4 528.58 26233.1 576.148 26215.4 633.342C26197.3 692.379 26188.2 762.867 26188.2 843.844ZM10351.2 1248.31H25898.3C25858.2 1178.75 25826.7 1107.9 25803.7 1035.97C25773 938.771 25757.4 839.198 25757.4 737.68C25757.4 630.752 25775.5 532.581 25811.4 443.821C25847.3 354.842 25901.5 275.375 25973.3 206.391C26044.8 137.628 26126.5 85.9558 26217.4 51.4592C26308 17.1925 26408.2 0 26516.9 0C26683.7 0 26837.8 35.6774 26978.9 107.251C27119.2 178.172 27246 284.345 27359.6 425.975C27438.8 524.256 27513.9 645.565 27585 789.14C27651.2 923.039 27714 1076.28 27772.9 1248.31H32768V1641.63H27785.9V1641.85V4059.77H27622.8L27367.4 3771.53L27355.9 3741.69V1641.85H26088.9C26104.8 1690.4 26117.5 1741 26126.9 1793.65C26140.1 1869 26146.9 1948.26 26146.9 2030.64C26146.9 2121.56 26136.7 2210.44 26116.3 2297.04C26096 2382.99 26065.2 2466.78 26024.2 2548.09C25983.9 2628.63 25933.2 2706.48 25873.1 2781.19C25821.9 2844.65 25763.5 2906.17 25697.8 2965.42C25755.2 3026.39 25818.6 3089.32 25887.9 3153.97C25969.2 3230.19 26058.5 3308.25 26155.3 3388.48C26251 3467.94 26355.5 3550.21 26468.4 3635.09C26579.8 3718.77 26700.1 3805.37 26828.2 3894.46L26865.9 3920.51L26757.5 4072.52L26720.1 4047.23C26604.9 3969.17 26495.9 3892.4 26393.3 3817.26C26288.1 3740.17 26188 3663.84 26093.5 3588.71C25998.5 3512.59 25907.1 3436.48 25820.1 3360.69C25735 3286.85 25652.5 3211.38 25572.8 3134.94C25415.9 2983.14 25298 2851.9 25219.3 2741.94C25136.5 2626.26 25094.9 2530.24 25094.9 2454.56C25094.9 2374.66 25123.3 2313.37 25179.9 2271.64C25232.3 2233.04 25308 2213.58 25406.6 2213.58C25450.9 2213.58 25501 2218.65 25555.7 2228.39C25599.9 2236.28 25646.5 2247.42 25695.5 2261.58C25728.5 2215.95 25754 2170 25771.8 2124.05C25792 2071.29 25802.4 2017.34 25802.4 1962.96C25802.4 1919.72 25794.7 1869.34 25779.7 1812.47C25766.1 1761.11 25746.4 1704.13 25720.8 1641.85H24229.1V3972.41C24335.7 4024.74 24442.6 4097.17 24549.1 4189.83C24669.5 4294.7 24784.2 4418.93 24892.1 4561.86C24999.5 4703.71 25100.7 4864.48 25194.9 5043.62L25229.9 5109.91H24991.4L24978.2 5086.77C24893.4 4939.73 24804.8 4810.53 24712.6 4700.14C24620.7 4590.62 24525.2 4499.48 24426.8 4427.47C24329.3 4355.79 24227.8 4302.06 24123.4 4266.49C24019.4 4231.02 23911.2 4213.29 23799.5 4213.29C23742.4 4213.29 23690.9 4219.13 23644.6 4230.92C23598.9 4242.49 23557.6 4260.22 23521 4283.57C23486.7 4305.52 23461.1 4330.93 23444.8 4359.47C23428.8 4387.58 23420.6 4420.34 23420.6 4457.32C23420.6 4496.34 23432 4530.94 23455 4560.89C23479.5 4593 23517.9 4621.43 23569.9 4645.44C23625.1 4671.06 23686.3 4690.41 23753.4 4703.38C23820.5 4716.36 23894.2 4723.07 23974 4723.07H24011.3L24092.2 5105.58L24040.2 5109.69C23925.3 5118.66 23818.9 5110.55 23721.5 5085.14C23622.9 5059.52 23533.6 5016.17 23453.7 4955.84C23373.1 4895.08 23312.3 4824.91 23271.6 4746.53C23230.5 4667.27 23210 4579.92 23210 4484.88C23210 4397.74 23225.8 4316.98 23256.9 4243.35C23288 4169.83 23334.8 4103.77 23396.8 4045.6C23458 3987.88 23523.6 3944.3 23593.4 3915.22C23664 3885.7 23738.6 3870.89 23816.3 3870.89C23842.7 3870.89 23869.1 3872.19 23895.7 3874.57L23809.9 3778.02L23798.4 3748.29V2703.67C23721 2739.56 23650.5 2767.67 23587.3 2787.67C23503.3 2814.49 23430.6 2828 23370.2 2828C23289.2 2828 23201.6 2817.83 23107.8 2797.62C23027.5 2780.32 22942.2 2755.13 22851.7 2722.26C22812 2799.67 22772 2868.32 22731.7 2927.79C22694.6 2983.03 22656.6 3030.93 22618.3 3071.26L22796.1 3282.52L22985.1 3501.02L23159.1 3693.68C23214.2 3753.04 23267.8 3809.26 23319.2 3861.49L23348.5 3891.11L23225.5 4032.41L23190.5 3996.2C23085.8 3887.21 22989.5 3785.48 22902.1 3691.42C22812.7 3595.19 22731.1 3505.34 22658.3 3423.18C22587.3 3342.63 22523.1 3267.81 22466.4 3198.84C22411.3 3131.92 22363.5 3070.93 22323.7 3016.12C22244 2906.28 22184 2807.56 22144 2720.64C22102.5 2629.71 22081.5 2550.25 22081.5 2482.24C22081.5 2398.67 22102.5 2333.69 22144.4 2288.72C22166.3 2265.26 22193.8 2247.42 22226.1 2235.85C22256.6 2224.92 22291.7 2219.41 22330.7 2219.41C22373.8 2219.41 22420.4 2226.22 22469.4 2239.31C22506.2 2249.36 22544.5 2262.88 22584.3 2279.96C22605.5 2242.44 22622.1 2199.74 22634 2152.06C22649.9 2088.59 22657.9 2015.29 22657.9 1932.48C22657.9 1883.93 22650.8 1833.44 22636.9 1781.54C22624.8 1736.78 22607.2 1689.97 22584.4 1641.85H22026.9H21370.8V4066.47H21207.5L20951.4 3771.21L20940.2 3741.69V2928.33H20145.8V3245C20145.8 3296.25 20136.2 3336.69 20117.3 3365.66C20094.3 3400.8 20060.1 3418.42 20015.9 3418.42C19977.7 3418.42 19922.6 3388.91 19851.4 3329.98C19787.7 3277.11 19706.3 3198.3 19608.4 3094.18C19509.5 2989.52 19435 2901.62 19385.1 2830.91C19330.7 2753.83 19303.5 2692.96 19303.5 2648.74C19303.5 2610.36 19319.1 2580.95 19349.7 2561.17C19374.4 2545.28 19408.5 2537.17 19451.2 2537.17H19715.1V1641.85H19303.5V1641.63H13464.5V3068.16V4064.84H13301.6L13045.6 3776.56L13034.1 3746.84V2702.83C12956.8 2738.7 12886.3 2766.8 12823.2 2786.9C12739.1 2813.69 12666.5 2827.09 12606.1 2827.09C12525.6 2827.09 12438.3 2817.04 12344.9 2796.94C12264.5 2779.65 12178.6 2754.48 12088.1 2721.41C12048.4 2798.78 12008.4 2867.39 11968.1 2926.83C11930.9 2982.04 11893.1 3029.91 11854.7 3070.21L12032.4 3281.34L12221.3 3499.73L12394.4 3691.42C12449.8 3751.06 12503.5 3807.57 12555.2 3859.97L12584.5 3889.7L12461.5 4030.81L12426.6 3994.61C12321.9 3885.69 12225.6 3784.01 12138.3 3690.01C12049 3593.84 11967.5 3504.04 11894.7 3421.93C11823.7 3341.43 11759.6 3266.66 11702.9 3197.72C11647.8 3130.83 11600.1 3069.89 11560.3 3015.1C11480.7 2905.54 11420.8 2807.1 11380.7 2719.79C11339.2 2629.25 11318.2 2549.61 11318.2 2481.54C11318.2 2441.34 11323.2 2405.14 11333.1 2373.37C11343.4 2339.87 11359.6 2311.14 11381.1 2288.12C11403 2264.67 11430.3 2246.84 11462.7 2235.28C11493.2 2224.36 11528.3 2218.85 11567.2 2218.85C11610.4 2218.85 11656.8 2225.66 11706 2238.74C11742.8 2248.79 11781 2262.29 11821 2279.37C11841.9 2241.98 11858.5 2199.3 11870.4 2151.53C11886.3 2088.11 11894.3 2014.85 11894.3 1932.08C11894.3 1883.56 11887.2 1833.1 11873.3 1781.24C11861.2 1736.5 11843.6 1689.71 11820.9 1641.63H10324.2C10340.1 1690.14 10352.8 1740.93 10362.1 1793.56C10375.4 1868.76 10382.2 1947.96 10382.2 2030.19C10382.2 2121.17 10371.9 2210.1 10351.5 2296.65C10331.2 2382.34 10300.5 2466.08 10259.4 2547.33C10219.1 2627.84 10168.6 2705.64 10108.4 2780.19C10057.2 2843.73 9998.81 2905.11 9933.29 2964.42C9991.37 3026.13 10054.8 3089.12 10123.2 3153.08C10203.9 3228.51 10293.1 3306.63 10390.6 3387.24C10486.1 3466.66 10590.8 3548.89 10703.6 3633.71C10814.9 3717.34 10934.9 3803.9 11063.1 3892.93L11100.6 3918.98L10992.4 4070.9L10955 4045.61C10840 3967.6 10730.9 3890.88 10628.5 3815.78C10523.3 3738.74 10423.2 3662.45 10328.9 3587.36C10234.6 3512.15 10143.1 3435.97 10055.2 3359.15C9970.26 3285.46 9887.77 3210.14 9808.35 3133.85C9489.89 2825.36 9330.71 2598.67 9330.71 2453.87C9330.71 2373.8 9359.04 2312.65 9415.61 2270.94C9468.34 2232.36 9543.93 2213.01 9642.28 2213.01C9686.48 2213.01 9736.48 2218.09 9791.29 2227.82C9835.37 2235.71 9881.98 2246.84 9930.88 2260.99C9964.02 2215.39 9989.51 2169.47 10007.1 2123.55C10027.5 2070.82 10037.8 2016.9 10037.8 1962.55C10037.8 1919.33 10030.1 1868.98 10015.1 1812.14C10001.5 1760.81 9981.75 1703.87 9956.15 1641.63H8465.36V4058.15H8302.35L8047.13 3770.08L8035.64 3740.25V1641.63H7055.54V4064.84H6909.26L6636.97 3752.25L6625.81 3722.85V1641.63H6299.04H5643.4V4058.15H5486.74L5224.95 3770.62L5213.03 3740.25V3117.65C5113.36 3180.53 5018.4 3229.37 4928.37 3264.06C4813.94 3307.93 4706.51 3329.98 4606.29 3329.98C4511.55 3329.98 4417.58 3306.85 4324.59 3260.82C4233.58 3215.76 4143.64 3148.66 4054.92 3059.73C3966.74 2971.01 3900.13 2884.36 3855.49 2800.5C3809.43 2713.53 3786.24 2629.25 3786.24 2547.66C3786.24 2492.99 3797.28 2439.5 3819.06 2387.2C3840.28 2336.09 3872.23 2286.49 3913.9 2238.95C3956.03 2191.41 4008.1 2149.16 4069.69 2112.64C4130.19 2076.76 4200.42 2045.97 4280.07 2020.68C4357.52 1995.61 4430.06 1976.71 4496.68 1964.17C4565.49 1951.21 4628.07 1944.83 4683.53 1944.83C4786.26 1944.83 4889.2 1970.33 4991.93 2021.12C5065.89 2057.63 5139.51 2107.56 5213.03 2170.55V1641.63H3786.24H0V1248.31H8047.6C7992.43 1184.84 7948.53 1118.9 7915.96 1050.35C7869.35 952.243 7845.83 849.485 7845.83 742.292C7845.83 625.816 7868.59 520.679 7913.99 427.316C7959.39 333.852 8027.55 252.813 8117.91 184.628C8198.98 123.255 8290.43 77.0109 8391.62 46.4316C8492.39 15.9612 8602.44 0.7226 8721.69 0.7226C8888.41 0.7226 9048.46 27.6238 9201.19 81.3266C9353.57 134.927 9498.75 215.319 9636.04 322.18C9772.68 428.938 9902.21 561.631 10023.4 720.36C10139.6 872.548 10249 1048.5 10351.2 1248.31ZM21509 552.262L21157.1 899.959L20805 552.262L20837.4 520.145L21157.1 204.556L21509 552.262Z" fill="#111111"/>
</svg>
